<?xml version="1.0" encoding="UTF-8" standalone="no"?>
<!-- Created with love by a crazy Pony -->

<svg
   width="416.61777mm"
   height="361.06409mm"
   viewBox="0 0 416.61777 361.06409"
   version="1.1"
   id="svg1"
   sodipodi:docname="PonyFestLogoFlat.svg"
   inkscape:version="1.3 (0e150ed6c4, 2023-07-21)"
   xmlns:inkscape="http://www.inkscape.org/namespaces/inkscape"
   xmlns:sodipodi="http://sodipodi.sourceforge.net/DTD/sodipodi-0.dtd"
   xmlns="http://www.w3.org/2000/svg"
   xmlns:svg="http://www.w3.org/2000/svg">
  <sodipodi:namedview
     id="namedview1"
     pagecolor="#ffffff"
     bordercolor="#999999"
     borderopacity="1"
     inkscape:showpageshadow="0"
     inkscape:pageopacity="0"
     inkscape:pagecheckerboard="0"
     inkscape:deskcolor="#d1d1d1"
     inkscape:document-units="mm"
     inkscape:zoom="0.39832111"
     inkscape:cx="616.33691"
     inkscape:cy="862.36957"
     inkscape:window-width="1920"
     inkscape:window-height="1017"
     inkscape:window-x="-8"
     inkscape:window-y="1112"
     inkscape:window-maximized="1"
     inkscape:current-layer="svg1" />
  <defs
     id="defs1" />
  <path
     id="svgInternalID"
     style="color:#182f7b;display:inline;fill:#182f7b;stroke-miterlimit:10;-inkscape-stroke:none"
     d="m 457.92442,381.35896 c -2.10605,-0.0357 -4.24582,-0.22351 -6.40283,-0.54199 -17.256,-2.54787 -37.19486,-13.22287 -59.40088,-32.29395 -26.48785,-22.74822 -82.82513,-72.5655 -153.88623,-118.00781 l -9.01612,1.36084 c -26.9144,4.06272 -70.62071,-2.85641 -116.90625,-20.23389 -25.681564,-9.64191 -51.986205,-22.60204 -75.916995,-39.12012 -2.542894,2.23527 -5.262413,4.4182 -8.475586,6.39404 -1.827976,1.126 -3.801521,2.19909 -6.020508,3.14209 -2.207988,0.947 -4.672164,1.7455 -7.472168,2.2295 -2.779991,0.47999 -5.9510542,0.61269 -9.227051,0.0337 -0.8119835,-0.132 -1.6368093,-0.33518 -2.4448243,-0.55518 l -1.2084961,-0.37207 c -0.4290232,-0.152 -0.87416838,-0.32744 -1.30517583,-0.50244 -1.73800457,-0.714 -2.97645447,-1.45348 -4.14843757,-2.18848 -2.2550151,-1.464 -3.9138846,-2.88313 -5.4638673,-4.28613 -1.5460139,-1.403 -2.8882139,-2.78081 -4.1572269,-4.17481 -5.037982,-5.53599 -9.038456,-11.08319 -12.877441,-16.72119 -3.797005,-5.63899 -7.326592,-11.32573 -10.662598,-17.09472 -1.639586,-2.87131 -3.324196,-5.70393 -4.83252,-8.63526 -0.796906,-0.0952 -1.59251,-0.15769 -2.390625,-0.28125 -23.4039,-3.6226 -43.452669,-18.8819 -57.96094,-40.379882 -21.11078,11.421262 -51.57849,15.268672 -83.58399,13.037112 -36.52365,-2.546595 -75.04523,-13.718557 -101.31152,-37.883792 -13.5938,-12.506434 -21.84765,-24.567619 -25.22754,-36.449708 -3.37989,-11.882088 -1.10099,-23.909818 5.77002,-32.2690436 8.20872,-9.9866704 20.91845,-14.7020484 35.25,-14.6938484 -19.60645,-27.787206 -27.98818,-53.875998 -27.53906,-76.888185 0.57205,-29.311483 15.49976,-52.835843 35.86523,-66.421873 12.72842,-8.49127 27.62779,-13.32546 42.69141,-13.70948 9.03816,-0.23041 18.13523,1.14218 26.85937,4.2876 16.53768,5.96253 31.18089,18.68244 40.93799,37.61865 13.52856,-19.31284 35.24347,-28.29024 54.524419,-28.85156 13.250378,-0.38575 25.691295,2.52266 35.236818,9.14502 4.77276,3.31119 8.90142,7.72711 11.222168,13.40625 0.190174,0.46538 0.341823,0.9486 0.502441,1.42822 0.148228,-0.0482 0.292373,-0.10798 0.440918,-0.15527 0.931021,-1.45089 1.926076,-2.86159 2.961914,-4.24072 1.403999,-1.845 2.909393,-3.6167 4.400391,-5.3877 1.496999,-1.768 3.014217,-3.51212 4.595215,-5.20312 3.125997,-3.406 6.386511,-6.67821 9.770508,-9.8042 3.378997,-3.13 6.890781,-6.10789 10.571778,-8.87988 l -6.906739,11.82275 c -2.267998,3.919 -4.482744,7.8353 -6.635742,11.7583 l -3.174317,5.896 -0.476074,0.91992 c 0.131508,-0.013 0.259413,-0.039 0.391113,-0.0513 3.837537,-0.35703 7.624757,-0.40278 11.34961,-0.1582 26.0739749,1.7121 49.092074,17.70458 64.88965,41.54297 18.054372,27.24387 27.556749,64.938738 24.316407,106.356443 -2.404997,30.738955 -11.527292,57.687271 -25.100099,78.72217 4.71855,6.192056 9.894242,12.236627 15.495118,18.089357 4.516054,-8.697098 8.601528,-17.670177 12.314942,-26.806643 4.696011,-11.661987 8.901722,-23.562324 12.427734,-35.695313 0.286112,-0.990506 0.542342,-1.990722 0.820313,-2.983887 -0.01214,-0.01714 -0.02595,-0.03265 -0.03809,-0.0498 l 0.06445,-0.04395 c 6.523469,-23.331717 10.77849,-47.397026 10.609864,-72.561036 4.236005,12.473987 6.256827,25.780949 6.84082,39.106934 0.306757,7.145954 0.16297,14.310603 -0.317871,21.459961 l 0.0059,-0.0044 c 5.425991,7.665992 12.921231,14.261924 21.511231,19.565918 8.58299,5.334995 18.15189,9.507637 28.10888,12.723633 19.96898,6.394994 41.42338,9.16952 62.71436,8.95752 21.28998,-0.235 42.65239,-3.470949 62.38037,-10.439942 9.83999,-3.496996 19.24691,-7.97122 27.6709,-13.595215 8.41899,-5.614994 15.82897,-12.40577 21.45996,-20.280762 l 8.78321,-12.2841798 8.50488,12.5493168 0.003,0.0029 c 5.65689,7.463526 11.60194,14.660263 17.95752,21.461426 15.8803,-5.97779 30.38825,-14.771985 42.04688,-26.687989 7.04899,-7.083993 13.06199,-15.2264742 18.16699,-24.0014654 5.08899,-8.7949916 9.21587,-18.2610656 12.58887,-28.0810556 6.73399,-19.67698 10.47338,-40.680573 12.71337,-61.914552 2.198,-21.270979 2.88279,-42.854169 2.80079,-64.494149 l -0.0513,-13.0122 12.77636,2.70556 2.37891,0.47608 2.50342,0.46435 c 1.679,0.301 3.36996,0.58454 5.06396,0.85254 3.391,0.536 6.79757,1.00704 10.20557,1.41504 6.81499,0.811 13.64321,1.36624 20.4082,1.57324 6.76,0.204 13.4686,0.0533 19.9336,-0.63574 6.44399,-0.689 12.69278,-1.96331 17.96777,-4.09131 1.306,-0.539 2.54666,-1.12335 3.70166,-1.75635 0.577,-0.316 1.12428,-0.64977 1.65527,-0.98877 0.488,-0.321 1.17229,-0.80769 1.11329,-0.78369 0.496,-0.347 1.59162,-1.95412 2.28662,-4.24511 0.736,-2.276 1.20097,-5.08582 1.41797,-8.02881 0.204,-2.961 0.18249,-6.07431 -0.0205,-9.23731 -0.43,-6.34199 -1.54494,-12.85451 -3.10694,-19.3125 -1.57499,-6.46099 -3.61879,-12.87885 -6.00878,-19.19385 -4.782,-12.63498 -10.88796,-24.87987 -18.04395,-36.48486 -7.15999,-11.60699 -15.30044,-22.63545 -24.29443,-32.91944 -8.985,-10.29298 -18.80575,-19.85694 -29.30274,-28.60693 -10.46999,-8.78499 -21.63525,-16.7423 -33.34424,-23.82129 -11.66899,-7.14599 -23.88592,-13.42385 -36.50391,-18.81885 -12.60298,-5.42999 -25.59674,-10.00594 -38.84472,-13.81494 -26.50898,-7.62399 -54.05243,-11.92111 -81.8584,-13.78711 -27.82598,-1.894 -55.93836,-1.3798 -84.11133,0.59619 -14.08199,1.052 -28.20082,2.37271 -42.3208,4.09571 -14.12999,1.68099 -28.26514,3.68101 -42.49512,5.66601 13.38498,-5.21999 27.06482,-9.66153 40.9248,-13.56152 13.86199,-3.893 27.93043,-7.15977 42.14942,-9.78076 28.43297,-5.255 57.52282,-7.895 86.73779,-7.292 29.19397,0.647 58.52916,4.41513 87.05713,12.01612 3.26789,0.86784 6.52037,1.80219 9.76319,2.77295 -20.60111,-25.74468 -28.04221,-49.35498 -25.06787,-69.28272 4.36064,-29.2159 32.32824,-46.09988 60.80127,-42.03223 49.68967,7.09854 106.45537,44.70584 149.81982,100.71827 35.96034,46.44877 62.09089,106.1572 65.05372,172.28174 30.24453,-45.01393 66.90068,-71.39977 96.3501,-77.53711 9.1511,-1.90712 17.9237,-1.90708 25.80029,1.27881 7.87659,3.18588 14.3051,10.22445 16.76367,18.80713 4.91714,17.16535 -1.82491,38.30884 -19.3667,66.40429 -29.82543,47.7687 -27.73858,101.29576 -18.18164,157.88673 9.55697,56.590978 26.88537,115.145288 23.7627,171.136235 -2.95543,52.985605 -30.82894,108.639725 -91.40626,139.921875 -53.79432,27.77942 -132.37114,36.10056 -240.82324,9.9331 21.4572,20.75146 37.85686,39.72842 49.20703,56.40528 16.53351,24.29282 23.97752,43.78352 21.68701,60.3457 -1.14525,8.2811 -5.66241,16.01743 -12.63428,20.26905 -3.48595,2.12581 -7.31607,3.39639 -11.35546,3.97558 -2.0197,0.2896 -4.09171,0.40629 -6.19776,0.37061 z m 3.09815,-21.16699 c 1.6388,-0.22828 2.79113,-0.66731 3.52002,-1.11182 1.4578,-0.889 2.28882,-1.74596 2.76855,-5.21484 0.95947,-6.93777 -3.21865,-23.57124 -18.24756,-45.65333 C 434.03467,286.1299 408.904,258.37831 371.19395,226.58356 l -38.95459,-32.84179 48.76465,14.76562 c 127.49954,38.6074 213.43457,30.75866 267.4043,2.88867 53.9697,-27.86998 77.4673,-75.81959 80.0669,-122.42578 2.82931,-50.730841 -13.65861,-108.222813 -23.4961,-166.475101 -9.83751,-58.252269 -12.72428,-118.363409 21.07618,-172.498539 16.09263,-25.77442 18.79395,-43.18977 16.98633,-49.5 -0.9038,-3.1551 -1.87966,-4.08313 -4.44581,-5.1211 -2.56614,-1.03793 -7.27639,-1.52132 -13.64209,-0.19482 -25.46274,5.30654 -72.17765,39.29051 -102.54492,101.95313 l -26.29834,54.27392 6.41162,-59.9707 c 8.16445,-76.36188 -19.22986,-146.21431 -59.86523,-198.70166 -40.63535,-52.48736 -94.86905,-86.88323 -136.17921,-92.78467 -19.34286,-2.76333 -34.37517,6.35101 -37.06054,24.34277 -2.64818,17.74256 8.54084,48.5195 53.41113,85.57617 7.70844,3.83723 15.28138,7.96053 22.64502,12.44825 12.65799,7.77999 24.72742,16.53895 36.04541,26.18994 11.31399,9.65499 21.83346,20.24297 31.46045,31.58496 9.62999,11.33999 18.32636,23.47794 25.96436,36.27393 7.61399,12.80998 14.21177,26.26608 19.36377,40.39306 2.58699,7.057 4.78399,14.29207 6.54199,21.70606 1.756,7.41699 3.05503,15.02035 3.56103,22.92334 0.235,3.957 0.26499,7.99342 -0.041,12.14941 -0.337,4.165 -0.97597,8.45559 -2.43897,12.97559 -0.733,2.253 -1.69878,4.58064 -3.07177,6.93164 -1.371,2.338 -3.17667,4.74182 -5.68067,6.84082 -1.424,1.175 -2.23066,1.67322 -3.22265,2.34522 -0.971,0.625 -1.95002,1.21581 -2.93702,1.75781 -1.97399,1.084 -3.96745,2.01454 -5.96045,2.83154 -7.98999,3.196 -15.89329,4.66167 -23.61328,5.51367 -7.72899,0.822 -15.31934,0.96861 -22.81933,0.74561 -7.5,-0.23 -14.90971,-0.83694 -22.2627,-1.71094 -3.1637,-0.37858 -6.31336,-0.83174 -9.46143,-1.3125 -0.1938,18.02468 -0.96998,36.11162 -2.84033,54.231448 -2.363,22.291978 -6.28185,44.727269 -13.73584,66.552247 -3.74199,10.889989 -8.39184,21.6077261 -14.27783,31.7827159 -5.89999,10.1529901 -12.99777,19.7891261 -21.40576,28.2451181 -4.19,4.234995 -8.6734,8.190828 -13.40039,11.819824 -4.737,3.614997 -9.71678,6.895429 -14.86377,9.836426 -4.00051,2.286502 -8.12444,4.300385 -12.29737,6.178711 5.1523,4.529007 10.48262,8.856095 16.00928,12.927247 19.19398,14.039986 40.61976,25.261183 63.42774,32.430173 11.39898,3.561 23.13492,6.10835 35.0039,7.27735 5.931,0.564 11.89248,0.84006 17.83448,0.64306 5.94499,-0.155 11.86592,-0.76442 17.69091,-1.85742 2.915,-0.541 5.80159,-1.21878 8.64258,-2.05078 2.843,-0.819 5.66142,-1.74949 8.39942,-2.87549 5.49899,-2.217 10.70298,-5.14696 15.50097,-8.709959 4.816,-3.552997 9.04381,-7.924685 12.69581,-12.84668 3.60499,-4.956995 6.49327,-10.538358 8.67627,-16.485352 -0.398,3.143997 -1.07318,6.26589 -1.95118,9.358887 -0.898,3.085997 -2.08321,6.106132 -3.47021,9.057129 -2.789,5.897994 -6.67691,11.345767 -11.2749,16.155765 -2.29,2.41999 -4.79774,4.63929 -7.44873,6.67529 -2.642,2.052 -5.43532,3.91028 -8.32032,5.61328 -5.77099,3.412 -11.95827,6.09979 -18.32226,8.15479 -12.74699,4.12999 -26.1321,5.82723 -39.41309,5.86523 -13.29699,0.021 -26.54405,-1.63805 -39.45703,-4.62305 C 422.46436,117.84806 397.883,106.62419 376.23302,91.22321 358.37715,78.496623 342.50045,62.827768 329.83703,44.9444 c -5.3045,5.374648 -11.09376,10.173975 -17.22803,14.266114 -10.16599,6.779993 -21.10342,11.935461 -32.29541,15.918457 -22.43598,7.905992 -45.85985,11.375833 -69.19483,11.652833 -11.67699,0.117999 -23.36383,-0.578592 -34.96582,-2.20459 -11.59999,-1.623999 -23.12691,-4.130535 -34.4209,-7.769532 -11.282,-3.649996 -22.36218,-8.423819 -32.76417,-14.882813 -4.83132,-2.993322 -9.495724,-6.442359 -13.888183,-10.294922 -4.325042,23.102299 -11.933881,45.523964 -21.893555,67.028323 7.743577,6.81544 15.875042,13.34093 24.216797,19.50879 142.633261,46.67985 265.993811,158.00271 308.399421,194.42139 20.29392,17.42878 38.10518,25.87844 48.78662,27.45557 2.67035,0.39428 4.79479,0.37622 6.4336,0.14795 z M 118.22861,195.8863 c 29.58735,11.1083 58.51148,17.32716 80.83594,19.35058 -13.3298,-5.77853 -31.90644,-14.33237 -56.354,-28.04296 C 117.77229,173.20813 89.960466,155.44914 56.254002,125.83088 41.082817,111.21286 35.252046,104.75448 29.894138,98.039128 c -0.276851,0.321312 -0.542452,0.661291 -0.821777,0.978516 -7.869013,8.936706 -16.82286,16.224126 -26.4492192,21.534666 7.5602182,8.64287 15.9847892,16.70322 35.3049322,31.86987 32.283912,22.56365 56.519041,34.53557 80.300536,43.46412 z M 9.7129857,159.24323 c -0.053858,-0.029 -0.1220164,-0.05 -0.1699219,-0.063 -0.011055,-0.016 -0.025473,-0.0234 -0.04248,-0.0264 -0.00594,-0.005 -0.010655,-0.006 -0.017578,-0.009 0.014408,0.008 0.049158,0.038 0.062988,0.0454 0.2131651,0.108 0.390929,0.17673 0.1669922,0.0527 z m -0.2695313,-0.12744 c -0.062629,-0.0285 0.052763,-0.017 0.4526367,-0.11279 0.8029979,-0.174 2.5516069,-0.85986 4.3916019,-2.04786 0.290267,-0.18517 0.604595,-0.43561 0.902344,-0.63867 -10.4530097,-8.82431 -20.1713107,-18.45125 -28.84131,-28.92627 -1.220015,0.35678 -2.449903,0.66354 -3.682617,0.95655 3.286288,4.49769 6.59805,8.94726 10.0078128,13.20703 1.925006,2.426 3.8779122,4.79562 5.8579103,7.05761 1.95700909,2.277 3.9524933,4.4405 5.916504,6.3545 0.9809849,0.945 1.9472595,1.85384 2.8432618,2.58984 0.8446847,0.7082 1.646408,1.27606 2.1518555,1.56006 z M -33.983304,113.50788 c 18.003573,0.15706 35.6404885,-8.82471 50.422852,-25.612795 16.89413,-19.18638 29.447886,-48.484788 32.219239,-83.906252 2.976645,-38.047137 -5.988084,-72.23831 -21.566895,-95.746584 -13.631459,-20.569739 -31.6562612,-32.804709 -51.861329,-34.062009 -2.886439,-0.17962 -5.815718,-0.1356 -8.784668,0.14062 -21.416393,1.99255 -40.718732,16.28214 -54.972658,38.809573 -14.253937,22.52744 -22.989237,52.967845 -22.885257,84.8349623 0.0978,30.0135577 8.06808,57.6966987 20.840335,78.2578147 12.772248,20.561115 30.011574,33.73654 48.85547,36.65332 h 0.0015 c 2.579633,0.39935 5.159507,0.60891 7.731446,0.63135 z M -50.603422,83.48444 C -51.6745,83.47071 -52.752474,83.413 -53.836332,83.310124 -70.483093,81.73012 -83.956127,69.994261 -92.767485,54.334049 -101.57919,38.673228 -106.35007,18.528792 -105.89688,-3.3178078 c 0.46809,-22.5624102 6.404415,-43.4877462 16.379883,-59.5546892 9.975467,-16.066942 24.690823,-27.882392 42.331056,-28.476563 18.414355,-0.620377 34.018476,11.427654 43.7373053,28.32129 C 6.2701939,-46.134133 11.177617,-23.792376 9.7437474,0.57428212 8.359089,24.109175 1.283646,44.791904 -9.700589,59.890201 -19.998309,74.044855 -34.537248,83.690372 -50.603422,83.48444 Z M -172.04044,81.665104 c 24.09827,0.07895 46.24656,-4.460277 59.38477,-10.96875 -9.87691,-21.078568 -15.50229,-46.095031 -15.58887,-72.6767594 -0.11402,-34.9437486 9.26317,-68.2394496 25.49268,-93.8891626 8.658922,-13.684882 19.419263,-25.251832 31.788574,-33.490722 0.482951,-1.55324 0.356761,-2.28833 -0.03223,-3.24024 -0.429005,-1.04982 -1.522763,-2.54747 -3.754395,-4.0957 -4.463262,-3.09647 -13.160481,-5.68457 -22.653809,-5.4082 -18.98665,0.55275 -39.72363,9.93488 -45.81884,38.37891 l -10.24366,47.803707 -10.2876,-47.793457 c -6.08479,-28.26585 -20.4746,-42.4903 -36.84521,-48.39258 -16.37061,-5.90229 -35.62468,-2.96936 -50.77588,7.13818 -15.15122,10.10754 -26.08392,26.8138 -26.52393,49.35938 -0.44001,22.545567 9.92633,51.76874 40.62012,85.500002 l 31.771,34.916016 -43.57471,-18.1552739 c -19.69174,-8.2048538 -36.22888,-3.9221834 -41.29981,2.2470704 -2.53546,3.0846255 -3.67144,6.5885395 -1.79296,13.1923835 1.87847,6.603842 7.55446,15.982274 19.24511,26.737793 20.92661,19.252678 55.40521,30.079228 88.55567,32.390626 4.14381,0.288925 8.26577,0.43345 12.33398,0.446777 z M -50.322172,63.966862 c 8.367286,0.109584 17.078401,-4.897302 24.836426,-15.561036 C -17.210519,37.031177 -10.935871,19.674864 -9.7445343,-0.57415541 -8.5094097,-21.563406 -13.00466,-40.491364 -20.369046,-53.292418 c -7.364386,-12.801054 -16.525057,-18.872474 -26.160645,-18.547852 -9.168714,0.308827 -18.658312,6.78891 -26.40381,19.26416 -7.745496,12.475251 -13.0449,30.339093 -13.445801,49.6625991 -0.387814,18.6953189 3.894959,35.7119319 10.625977,47.6748059 6.731017,11.962873 15.288937,18.31249 23.761231,19.116211 h 0.0015 c 0.554388,0.05262 1.110638,0.08205 1.668457,0.08936 z M -124.06973,-174.60492 c -66.11711,0 -113.14454,-45.24616 -113.14454,-108.12891 0,-62.6015 47.02743,-107.84766 113.14454,-107.84766 66.117108,0 113.132813,44.9532 113.132813,107.84766 0,63.17571 -47.015705,108.12891 -113.132813,108.12891 z m -292.09864,-4.99219 v -205.69922 h 56.71875 v 56.71875 h 30.85547 c 43.7812,0 76.40625,31.44144 76.40625,74.63672 0,42.90229 -32.62505,74.34375 -76.40625,74.34375 z m 434.024422,0 v -205.69922 h 54.94922 v 111.375 l 81.691408,-111.375 h 47.02735 v 205.69922 h -54.96094 v -108.14063 l -79.042974,108.14063 z m 205.998048,0 71.40235,-125.17969 v -80.51953 h 57.59766 v 80.22656 l 71.70703,125.47266 h -62.60156 l -37.60547,-74.34375 -37.61719,74.34375 z m 242.35987,-32.58545 c 0,0 1.26252,-31.68753 29.6045,-11.56055 0,0 -15.66951,-2.19943 -29.6045,11.56055 z m -590.2837,-15.01611 c 31.441375,0 54.070312,-23.21487 54.070312,-55.53516 0,-32.03903 -22.628937,-55.25391 -54.070312,-55.25391 -31.14839,0 -54.36328,23.50787 -54.36328,55.25391 0,32.02733 23.21489,55.53516 54.36328,55.53516 z m -235.37989,-2.0625 h 24.09375 c 14.98826,0 24.67969,-10.27736 24.67969,-24.97266 0,-14.6953 -9.69143,-24.98437 -24.67969,-24.98437 h -24.09375 z m 341.745125,-197.17969 c -48.480416,0 -78.164065,-23.21491 -78.164065,-63.76172 0,-46.72263 37.910193,-55.83984 67.593752,-63.17579 19.6874735,-4.71092 35.8476569,-8.53126 35.8476569,-21.45703 0,-11.16795 -11.4609408,-17.63672 -23.2148439,-17.63672 -12.925745,0 -24.38672,7.34767 -24.38672,22.04297 h -58.476563 c 0,-44.9531 32.613341,-71.69531 82.863283,-71.69531 47.894495,0 82.277345,23.50787 82.277345,68.46094 0,46.72262 -39.375005,57.01173 -69.9375013,64.65234 -19.1015247,4.99218 -34.6757817,8.81253 -34.6757817,20.56641 0,9.70312 9.703151,14.10937 19.6875,14.10937 11.7539035,0 21.4570318,-6.17579 21.4570318,-19.39453 H 60.178319 c 0,42.02338 -28.511782,67.28907 -77.882814,67.28907 z m -398.463875,-4.69922 v -205.69923 h 57.30469 v 72.00001 h 66.11719 v 49.65234 h -66.11719 v 32.625 h 73.75781 v 51.42188 z m 161.03321,0 v -205.69923 h 134.29687 v 49.07813 h -77.87109 v 30.85547 h 67.58203 v 46.42969 h -67.58203 v 30.26953 h 75.22266 v 49.06641 z m 332.93262,0 v -51.12891 h 55.83984 v -154.57032 h 57.01172 v 154.57032 h 55.82813 v 51.12891 z"
     transform="matrix(0.35277777,0,0,-0.35277777,146.81495,134.53703)" />
</svg>
